<svg xmlns="http://www.w3.org/2000/svg" viewBox="0 0 512 512" role="img" aria-label="VEKTR logo">
  <rect width="512" height="512" rx="92" fill="#050505"/>
  <path d="M82 120h78l96 248 96-248h78L292 422h-72L82 120z" fill="#7A0C12"/>
  <path d="M130 128h58l68 178 68-178h58L286 386h-60L130 128z" fill="#B3121B"/>
  <path d="M176 136h40l40 108 40-108h40l-60 164 28 74h-36l-12-34-12 34h-36l28-74-60-164z" fill="#D01822"/>
  <path d="M152 128h30l74 194 74-194h30l-86 230h-36L152 128z" fill="#050505" opacity=".18"/>
  <path d="M256 118v214" stroke="#050505" stroke-width="14" stroke-linecap="round" opacity=".38"/>
  <path d="M170 394h172" stroke="#B3121B" stroke-width="22" stroke-linecap="round"/>
</svg>
